<?xml version="1.0" standalone="no"?>
<!DOCTYPE svg PUBLIC "-//W3C//DTD SVG 20010904//EN"
 "http://www.w3.org/TR/2001/REC-SVG-20010904/DTD/svg10.dtd">
<svg version="1.0" xmlns="http://www.w3.org/2000/svg"
 width="450.000000pt" height="450.000000pt" viewBox="0 0 450.000000 450.000000"
 preserveAspectRatio="xMidYMid meet">
<metadata>
Created by potrace 1.14, written by Peter Selinger 2001-2017
</metadata>
<g transform="translate(0.000000,450.000000) scale(0.100000,-0.100000)"
fill="#000000" stroke="none">
<path d="M1847 4110 c-23 -144 -54 -236 -137 -405 -73 -150 -146 -265 -366
-580 -355 -508 -483 -760 -554 -1090 -31 -143 -39 -416 -16 -551 32 -189 120
-398 240 -568 l41 -59 7 99 c27 375 157 634 558 1109 296 350 400 520 446 725
9 38 19 70 23 70 3 0 32 -14 65 -30 191 -97 455 -350 648 -620 223 -312 375
-658 434 -985 19 -107 25 -361 12 -470 l-8 -60 83 86 c176 183 296 409 353
664 21 96 29 358 15 481 -52 443 -259 911 -590 1334 -289 370 -678 707 -1002
871 -86 42 -203 89 -227 89 -4 0 -16 -49 -25 -110z"/>
</g>
</svg>
